# xmcd
#
# Track frame offsets: 
#        150
#        22080
#        41076
#        56094
#        73107
#        87667
#        106355
#        127092
#        143271
#        161732
#        177904
#        197529
#        216588
#        235690
#
# Disc length: 3401 seconds
#
# Revision: 0
# Processed by: cddbd v1.5.2PL0 Copyright (c) Steve Scherf et al.
# Submitted via: ExactAudioCopy v0.95b4
#
DISCID=d10d470e
DTITLE=Dolly Varden - Mouthful of Lies
DYEAR=1995
DGENRE=Alt. Country
TTITLE0=Mouthful of Lies
TTITLE1=Not Ashamed
TTITLE2=All the Vermeers in New York Can't Save You Now
TTITLE3=Quarters Into Dollars
TTITLE4=Is That Your Boy?
TTITLE5=Shut My Mouth
TTITLE6=Tall Man
TTITLE7=Pink to Black
TTITLE8=In Our Graves We'll Be Together Face to Face
TTITLE9=The Better It Gets
TTITLE10=Stumbelina
TTITLE11=Gone So Far
TTITLE12=Angel
TTITLE13=All the Vermeers in New York Can't Save You Now (Alt. Mix) [B
TTITLE13=onus]
EXTD=
EXTT0=
EXTT1=
EXTT2=
EXTT3=
EXTT4=
EXTT5=
EXTT6=
EXTT7=
EXTT8=
EXTT9=
EXTT10=
EXTT11=
EXTT12=
EXTT13=
PLAYORDER=
